# xmcd CD database file
#
# Track frame offsets:
#	150
#	24918
#	48730
#	72240
#	95830
#	115605
#	136075
#	154445
#	176540
#	196365
#
# Disc length: 2807 seconds
#
# Revision: 1
# Processed by: cddbd v1.4PL0 Copyright (c) Steve Scherf et al.
# Submitted via: CDex 1.50Beta7
#
DISCID=870af50a
DTITLE=Charles Michael Brotman - Pacific Rendezvous
DYEAR=1900
DGENRE=New Age
TTITLE0=Ali Ann
TTITLE1=Club Cabana
TTITLE2=King's Ransom
TTITLE3=Pacific Rendezvous
TTITLE4=Smuggler's Inn
TTITLE5=You Are The One
TTITLE6=Sangria
TTITLE7=Charlie's Angel
TTITLE8=Turtle Bay
TTITLE9=Encounters
EXTD=
EXTT0=
EXTT1=
EXTT2=
EXTT3=
EXTT4=
EXTT5=
EXTT6=
EXTT7=
EXTT8=
EXTT9=
PLAYORDER=
